<?xml version="1.0" standalone="no"?>
<!DOCTYPE svg PUBLIC "-//W3C//DTD SVG 20010904//EN"
 "http://www.w3.org/TR/2001/REC-SVG-20010904/DTD/svg10.dtd">
<svg version="1.0" xmlns="http://www.w3.org/2000/svg"
 width="512.000000pt" height="512.000000pt" viewBox="0 0 512.000000 512.000000"
 preserveAspectRatio="xMidYMid meet">
<metadata>
Created by potrace 1.14, written by Peter Selinger 2001-2017
</metadata>
<g transform="translate(0.000000,512.000000) scale(0.100000,-0.100000)"
fill="#000000" stroke="none">
<path d="M1768 4475 c-2 -1 -32 -5 -68 -9 -36 -3 -76 -8 -90 -11 -13 -2 -42
-7 -64 -11 -22 -3 -48 -10 -58 -15 -10 -5 -18 -8 -18 -5 0 7 -116 -28 -217
-64 -95 -35 -256 -110 -261 -122 -2 -5 -8 -8 -14 -8 -15 0 -175 -106 -253
-168 -75 -60 -228 -209 -289 -282 -62 -75 -181 -259 -230 -357 -79 -157 -153
-374 -172 -503 -3 -19 -7 -41 -9 -47 -18 -53 -27 -442 -12 -538 3 -22 9 -60
12 -85 13 -87 67 -285 100 -371 98 -255 243 -478 435 -669 309 -310 679 -494
1110 -553 151 -21 1290 -22 1434 -1 346 49 659 205 901 448 50 50 100 104 113
119 166 203 283 456 338 731 19 95 25 344 11 416 -45 228 -193 415 -414 522
l-72 34 52 56 c29 31 83 89 121 130 294 309 359 378 391 413 40 42 292 308
412 435 119 126 125 133 140 169 74 177 -69 370 -258 348 -79 -10 -88 -17
-284 -202 -136 -129 -355 -337 -386 -366 -71 -67 -380 -359 -554 -524 -150
-143 -197 -185 -204 -185 -21 0 -133 94 -169 142 -90 120 -111 189 -127 406
-26 360 -294 654 -655 721 -47 8 -682 14 -692 6z m1182 -1446 c46 -14 114 -69
135 -109 14 -26 13 -29 -14 -51 -16 -13 -88 -80 -160 -149 -72 -69 -136 -127
-142 -129 -6 -2 -31 16 -55 40 -86 84 -97 211 -27 309 58 81 167 118 263 89z"/>
</g>
</svg>
